PathFileType	4	(X/Y/Z)	C:/Users/beibeiliu/ov580/test_trc/User2\sequence.6_training_dense_right.trc
DataRate	CameraRate	NumFrames	NumMarkers	Units	OrigDataRate	OrigDataStartFrame	OrigNumFrames
120	120	22	19	mm	120	27	80
Frame#	Time	ThumbCMC			ThumbMCP			ThumbIP			ThumbTip			IndexMCP			IndexPIP			IndexTip			MiddleMCP			MiddlePIP			MiddleTip			RingMCP			RingPIP			RingTip			PinkyMCP			PinkyPIP			PinkyTip			BackHand1			BackHand2			BackHand3	
		X0	Y0	Z0	X1	Y1	Z1	X2	Y2	Z2	X3	Y3	Z3	X4	Y4	Z4	X5	Y5	Z5	X6	Y6	Z6	X7	Y7	Z7	X8	Y8	Z8	X9	Y9	Z9	X10	Y10	Z10	X11	Y11	Z11	X12	Y12	Z12	X13	Y13	Z13	X14	Y14	Z14	X15	Y15	Z15	X16	Y16	Z16	X17	Y17	Z17	X18	Y18	Z18	
26	0.216667	159.088	55.0421	-28.0287	127.445	60.2373	-43.0874	98.8225	61.065	-64.0094	82.5513	44.1552	-83.9405	172.908	47.4684	-104.085	161.144	48.3229	-134.582	127.005	53.7901	-144.83	151.04	18.7863	-110.745	111.119	18.7962	-118.264	85.4831	23.1824	-92.4526	131.463	1.66465	-100.929	101.295	9.47798	-91.5715	93.4005	18.4281	-58.0091	127.46	-19.7043	-83.0032	102.38	-0.693525	-72.8986	105.274	13.4259	-46.3028	182.056	-4.57935	-56.2953	193.911	-7.93121	-23.7897	195.339	29.0677	-39.1098	
27	0.225	156.917	57.7459	-24.6115	121.972	61.2102	-40.6185	92.724	55.8487	-66.8743	76.5154	41.922	-81.2912	170.072	47.1524	-106.376	161.282	54.0735	-133.688	135.007	58.5904	-155.834	146.633	18.4684	-110.903	108.989	16.8052	-117.893	81.5685	25.8231	-89.3458	133.081	-3.13516	-97.3659	100.694	7.00177	-91.0889	91.5192	14.6142	-56.3426	128.556	-20.0654	-82.2404	99.0764	-8.82322	-70.3724	104.684	14.2011	-43.7297	181.259	-5.39994	-57.8046	196.377	-3.56876	-21.5753	191.499	30.1709	-43.0874	
28	0.233333	148.528	54.3462	-25.2489	113.297	56.3668	-41.6588	86.6681	50.6692	-59.7378	68.8095	36.418	-77.6047	161.114	51.2929	-106.49	153.22	56.9005	-130.655	134.863	60.8796	-159.51	138.392	18.1195	-110.055	103.393	17.8683	-115.839	74.1545	20.0936	-87.3045	123.679	-3.11161	-96.3517	93.6188	0.403027	-87.7426	85.7114	11.619	-55.8071	123.425	-21.1612	-79.8246	94.8392	-8.49957	-67.5638	96.6643	6.56177	-40.5697	177.802	-3.61891	-55.1969	190.994	-5.17057	-21.3604	184.544	33.2153	-42.6387	
29	0.241667	143.297	50.8695	-21.6198	107.11	52.8028	-35.5187	76.2476	48.1116	-58.0756	63.2479	29.3794	-75.8674	150.629	45.3778	-106.914	143.959	52.04	-128.899	132.049	55.5342	-155.082	129.804	13.5485	-108.832	93.2444	11.6251	-111.118	66.5386	17.8641	-82.5984	119.193	-7.80851	-92.6056	86.4003	-2.40719	-83.7886	79.1582	9.77258	-51.2445	119.174	-24.4223	-76.9028	88.3041	-13.0403	-63.4431	89.7517	1.8421	-37.4841	171.051	-6.37412	-55.3733	186.329	-7.76243	-21.3774	178.129	32.1895	-37.6063	
30	0.25	136.008	49.7804	-22.3552	100.494	50.3435	-35.6932	72.2891	43.6268	-53.451	57.587	27.4852	-69.3824	144.205	46.3272	-101.844	134.62	46.8703	-129.657	121.644	50.3698	-153.063	123.766	10.9214	-105.562	86.0824	8.16787	-109.465	61.2812	9.9471	-80.5814	111.801	-11.0132	-92.1908	81.243	-5.37819	-83.4145	73.5979	2.84051	-46.8694	113.192	-25.7857	-75.5014	84.8227	-13.9372	-63.5245	84.4335	0.534919	-38.1463	165.31	-9.46553	-52.6763	178.996	-7.4129	-22.1821	173.052	28.8946	-37.0941	
31	0.258333	132.197	47.0965	-19.6971	94.8764	47.7407	-36.0768	67.8226	41.9345	-53.2136	51.412	24.1883	-71.1489	140.202	39.0117	-99.1009	127.043	45.2096	-129.625	103.359	42.9479	-149.608	118.761	7.25972	-105.985	82.6623	3.40568	-109.288	54.3365	9.23412	-80.1451	106.106	-11.8076	-91.2293	75.9479	-10.1059	-81.0724	67.893	2.56995	-51.409	108.257	-31.0232	-73.398	80.2148	-18.6498	-62.9208	80.6178	0.100666	-37.2633	159.826	-9.57005	-52.2616	177.105	-7.18688	-19.7459	167.6	23.5554	-36.8957	
32	0.266667	128.117	47.2553	-15.5936	89.8308	46.761	-34.2458	61.2367	41.403	-53.9077	48.2044	20.5757	-70.0861	134.866	36.6114	-96.862	116.484	43.4933	-128.309	90.3007	39.4896	-139.043	116.212	5.59201	-101.466	77.2307	4.20681	-108.401	50.2334	2.58098	-80.2563	103.284	-15.3784	-89.0488	71.8845	-12.0359	-81.5247	62.9959	-2.74837	-46.711	105.236	-32.8353	-72.2138	73.7829	-25.397	-59.8294	77.4223	-2.95916	-33.5566	156.983	-15.1548	-49.9216	169.973	-14.6596	-19.6223	162.198	20.7999	-38.4887	
33	0.275	123.005	42.0665	-16.0912	86.6568	44.4435	-28.2152	56.7252	37.7711	-47.5502	41.6848	17.5959	-68.2237	127.535	36.5031	-100.048	111.481	37.8318	-125.868	82.062	31.3074	-137.581	110.321	-1.03217	-98.9909	72.088	-1.35581	-106.859	45.1452	0.611053	-81.113	94.4168	-20.6177	-87.541	65.5781	-17.9258	-77.9608	57.7847	-8.97287	-46.3584	97.1413	-36.9809	-70.8102	68.4957	-27.6925	-57.5833	69.8988	-7.14122	-28.3082	153.213	-16.7706	-49.9862	165.815	-14.2455	-21.0782	157.598	22.1141	-34.3061	
34	0.283333	116.819	38.3308	-17.0917	78.7766	40.327	-28.7263	53.0924	30.5979	-43.184	34.6313	12.0686	-63.1912	119.811	29.7213	-97.8152	103.047	38.3467	-127.018	80.1108	33.7507	-141.7	99.8514	1.83565	-100.697	65.6081	-4.03999	-103.292	37.6585	-4.0381	-73.3413	90.4845	-20.755	-85.0504	61.8522	-21.5079	-75.3621	52.0472	-7.07698	-40.4383	92.5085	-38.748	-68.2016	64.4157	-30.3095	-53.1265	65.9777	-9.82052	-29.0018	146.595	-19.6505	-47.1413	161.95	-15.0462	-17.4386	151.205	19.5879	-36.9279	
35	0.291667	112.799	35.7909	-12.9225	72.1772	35.1204	-27.3791	42.7912	27.1267	-40.8957	31.7478	4.64765	-55.8954	110.902	32.3468	-98.9074	97.6828	31.8418	-121.361	80.0043	35.7018	-143.694	91.7203	-3.833	-99.2799	56.2603	-9.32091	-99.065	31.3298	-12.4566	-70.1596	85.6712	-27.6323	-81.448	53.3672	-22.4479	-70.1376	46.1565	-14.1469	-34.9629	85.1903	-41.6122	-66.7508	61.4405	-33.7133	-52.357	62.2219	-14.2835	-25.1131	143.185	-17.9523	-48.792	159.441	-16.7845	-15.8665	147.533	15.1601	-36.1143	
36	0.3	105.761	33.1098	-15.0354	69.1051	30.9227	-21.8902	36.169	21.021	-41.8404	23.9676	0.782024	-53.8621	104.672	24.7765	-96.8742	91.1332	31.8126	-119.829	75.1099	28.8591	-142.098	85.508	-4.34407	-96.3091	51.6967	-13.0482	-95.6336	23.5796	-12.0912	-66.1752	80.2987	-29.1792	-79.3012	48.2081	-27.6581	-65.6213	42.0715	-16.3593	-33.248	84.1416	-47.6376	-62.1818	52.7891	-36.5759	-44.7697	54.4612	-18.4646	-25.0745	136.142	-21.0542	-46.3918	153.218	-17.2602	-19.9881	142.759	14.1223	-32.3535	
37	0.308333	100.563	29.3923	-8.39667	61.2058	29.2308	-18.2924	28.5029	17.482	-38.1187	17.1712	-4.1702	-50.838	97.0542	21.7526	-91.9045	83.0353	24.0829	-117.564	59.6052	27.1481	-138.177	79.5799	-10.5656	-93.3942	44.1989	-19.747	-91.655	19.7551	-20.0007	-60.3958	74.5824	-33.635	-77.5439	41.9212	-31.9698	-62.8299	36.0175	-20.0535	-33.0431	76.1337	-51.8565	-59.3502	47.7571	-41.0356	-42.1811	50.9889	-20.1161	-19.3045	132.34	-24.7108	-43.9353	148.618	-23.0611	-18.1665	133.745	11.6501	-35.0206	
38	0.316667	94.8489	27.9607	-5.80089	56.1692	25.1787	-15.8904	24.1519	13.8768	-34.4248	11.4347	-6.50184	-45.2206	90.2197	18.756	-92.8022	71.6863	21.3429	-116.735	41.1769	14.6002	-126.369	75.7802	-16.6021	-89.9748	39.4244	-20.7628	-90.3462	14.4636	-20.3951	-57.961	66.1225	-35.1972	-75.9968	38.9617	-38.7096	-64.2363	31.3496	-24.3427	-31.2834	74.0388	-53.9967	-57.7273	45.3743	-49.1026	-42.8004	45.487	-27.5359	-19.6775	125.293	-26.3894	-41.053	142.503	-21.5339	-15.9605	129.733	9.30803	-32.4384	
39	0.325	88.7736	28.3666	-4.36862	51.1257	19.6428	-18.1922	23.1207	7.43226	-33.0926	9.24801	-11.3119	-43.174	87.1325	16.76	-85.6871	66.7636	16.8668	-113.132	32.6984	7.75318	-114.804	71.1051	-15.3257	-91.0665	34.3971	-25.6289	-88.2815	14.1217	-26.2433	-54.9695	63.2419	-41.496	-74.6022	35.1119	-40.2235	-62.2053	29.4479	-27.577	-28.4678	70.5222	-54.3234	-58.2153	40.8776	-50.3639	-41.0904	43.5005	-30.1031	-15.6133	122.696	-31.1622	-40.6568	140.414	-26.418	-10.9072	125.786	9.06187	-30.9295	
40	0.333333	85.9335	26.1472	-6.6679	49.8661	17.7028	-14.6227	19.3165	6.99345	-29.4357	8.77486	-14.707	-43.9734	85.1785	15.9622	-86.8243	63.5675	10.9629	-111.901	27.7089	0.980574	-110.549	72.1865	-20.3334	-89.0102	36.9467	-26.1042	-89.6146	12.9133	-27.9875	-56.18	66.6626	-43.2575	-72.2268	34.9223	-42.599	-61.6801	27.726	-33.3813	-28.8924	69.6928	-60.1586	-56.1116	40.0572	-53.5531	-39.4513	41.1371	-34.7907	-14.4139	120.657	-28.7076	-40.778	140.194	-25.1979	-12.2462	123.024	5.51518	-28.3089	
41	0.341667	84.3408	22.8197	-4.73179	46.7597	17.3008	-10.7574	17.9237	2.5559	-28.7777	4.82028	-19.4442	-43.4866	81.8417	17.0687	-86.1999	60.7118	13.1193	-111.93	29.9449	5.77769	-116.394	66.5238	-19.7259	-89.7828	32.8495	-31.4381	-86.6612	11.2722	-32.7956	-52.4381	60.9001	-44.7947	-72.0421	33.5879	-44.2419	-61.4737	27.8116	-33.9934	-23.6721	70.1582	-61.3943	-54.5711	38.5268	-51.1244	-38.5084	40.0623	-37.1962	-13.8352	121.251	-30.2759	-39.2235	134.968	-26.1858	-13.0218	120.445	8.67272	-27.0607	
42	0.35	82.0204	20.4774	-4.81278	45.2134	13.9288	-9.36472	13.3363	0.278466	-26.6267	1.60999	-22.7104	-42.198	77.6965	12.7582	-88.3119	61.0077	12.4094	-110.054	32.8845	6.56745	-123.394	64.4626	-24.0002	-88.2148	32.6188	-33.5714	-86.9131	8.17737	-34.5448	-54.0096	59.8912	-42.0904	-70.3789	30.3742	-46.0707	-57.0679	24.3732	-33.9071	-26.3969	67.6471	-63.1253	-53.9025	37.8888	-57.6552	-38.5555	39.4666	-36.8998	-11.5758	118.973	-30.3559	-38.7886	134.094	-27.5388	-13.0642	116.47	7.10204	-29.2841	
43	0.358333	80.6325	20.609	-5.10306	45.6207	9.84237	-11.459	15.4292	-3.38554	-25.4042	3.98363	-24.7968	-38.4693	79.5501	8.32968	-85.3143	59.7188	12.0222	-114.776	38.1638	6.65909	-129.841	67.5912	-24.2394	-85.4869	29.9962	-32.4362	-87.2739	7.85046	-35.5936	-57.4551	61.7071	-46.0541	-71.3857	29.6633	-47.6399	-55.6943	26.0411	-40.3469	-23.8603	65.9977	-65.8126	-55.4885	38.4628	-56.7604	-39.149	41.8131	-39.8799	-12.3779	118.739	-32.2064	-39.1019	135.294	-28.3642	-13.9891	119.031	1.70152	-26.8295	
44	0.366667	83.5361	8.0654	-12.4698	48.9007	2.1188	-16.1912	18.133	-10.7587	-29.4208	4.73964	-33.2417	-42.8056	82.6732	-1.51005	-94.4867	66.4972	-1.65506	-117.584	40.6182	-13.3947	-134.665	67.1686	-35.5375	-90.2945	32.0317	-46.9599	-88.3221	9.4016	-44.6012	-57.7398	59.4901	-57.8162	-72.8475	30.6886	-56.6312	-57.6268	28.2752	-46.4381	-26.2722	67.7786	-70.6038	-56.1201	39.6367	-64.937	-37.7448	45.0144	-43.8059	-17.0431	119.974	-43.7619	-45.5787	136.931	-37.7954	-12.1388	121.216	-5.22649	-30.7492	
45	0.375	84.7728	0.304457	-15.631	47.3952	-5.88624	-22.8659	16.2014	-17.2644	-36.1321	3.7984	-42.7552	-49.3193	86.6604	-16.7318	-93.1611	67.1144	-16.6833	-121.124	35.503	-28.2329	-131.178	69.89	-46.8053	-93.0919	35.2725	-55.6564	-93.7929	11.1626	-55.2741	-60.5767	64.8428	-66.4332	-74.2725	32.2568	-67.1347	-60.3979	27.6325	-53.2823	-29.4435	66.36	-84.9671	-56.6518	41.6195	-74.4341	-42.9025	43.8179	-55.006	-14.9592	119.644	-51.3451	-44.1497	139.739	-48.7634	-13.8099	120.644	-12.8661	-36.9433	
46	0.383333	83.7579	0.606757	-17.384	49.3498	-8.24127	-24.6612	15.7541	-21.743	-40.0302	7.55846	-44.1735	-48.4025	85.1423	-17.4904	-95.888	66.65	-25.8204	-121.998	31.9814	-37.6795	-125.092	71.7018	-52.0235	-93.778	34.7878	-60.4092	-94.8485	12.6974	-59.0795	-63.3815	65.8023	-70.1585	-76.6359	33.1829	-70.8672	-63.4172	28.7184	-56.2943	-31.8741	66.591	-90.2625	-57.8443	39.5116	-78.2262	-38.8494	44.9072	-56.1206	-20.8074	118.755	-60.1751	-47.1449	138.175	-52.0744	-19.211	122.206	-19.925	-37.6445	
47	0.391667	88.7245	-0.245532	-15.3306	48.3842	-4.76705	-24.724	18.2029	-18.046	-38.1037	11.4025	-45.0634	-50.0664	86.2115	-14.6448	-94.898	67.7261	-24.9529	-123.197	36.2131	-30.1924	-128.282	71.8232	-53.3817	-94.6278	33.6361	-60.0968	-93.714	11.1399	-55.1072	-63.0331	67.2987	-70.1201	-76.7767	33.887	-72.5292	-62.2479	29.2896	-56.7623	-33.8349	68.937	-86.5467	-58.2086	42.1158	-75.0811	-44.3221	44.0204	-54.7535	-21.7559	123.267	-57.6377	-45.5942	140.589	-47.0513	-16.3948	124.662	-16.5697	-34.8498	
